<svg
                width="226"
                height="227"
                viewBox="0 0 226 227"
                fill="none"
                xmlns="http://www.w3.org/2000/svg"
              >
                <path
                  d="M116.073 3.28638L211.441 58.7952V169.813L116.073 225.322L20.7056 169.813V58.7952L116.073 3.28638Z"
                  fill="#38393A"
                />
                <path
                  d="M116.15 3.28638L178.139 114.304H54.1606L116.15 3.28638Z"
                  fill="#B5B5B5"
                />
                <path
                  d="M116.14 3.28638L211.578 58.7952L178.138 114.304L116.14 3.28638Z"
                  fill="#8F8F8F"
                />
                <path
                  d="M116.113 3.28638L54.1513 114.304L20.7111 58.7952L116.113 3.28638Z"
                  fill="#CCCCCC"
                />
                <path
                  d="M177.98 114.329L211.42 169.838L116.14 225.347L177.98 114.329Z"
                  fill="#5C5C5C"
                />
                <path
                  d="M20.7094 169.829L54.1495 114.32L116.148 225.337L20.7094 169.829Z"
                  fill="#B0B0B0"
                />
                <path
                  d="M116.144 225.336L54.1552 114.318L178.133 114.318L116.144 225.336Z"
                  fill="#979797"
                />
                <path
                  d="M54.1543 114.339L20.7141 169.848L20.7142 58.8303L54.1543 114.339Z"
                  fill="#E0E0E0"
                />
              </svg>