<svg
    width="21"
    height="24"
    viewBox="0 0 21 24"
    fill="none"
    xmlns="http://www.w3.org/2000/svg"
  >
    <g clip-path="url(#clip0_5_355)">
      <path
        d="M18.2462 4.5456C18.2298 4.42639 18.1257 4.36025 18.0393 4.35305C17.9535 4.34585 16.2729 4.32031 16.2729 4.32031C16.2729 4.32031 14.8674 2.95544 14.7286 2.8166C14.5898 2.67775 14.3186 2.71967 14.2132 2.7511C14.2119 2.75176 13.9493 2.83297 13.5072 2.96985C13.4332 2.73015 13.3244 2.43543 13.1692 2.1394C12.6689 1.18452 11.936 0.679574 11.0505 0.678268C11.0492 0.678268 11.0486 0.678268 11.0473 0.678268C10.9857 0.678268 10.9248 0.684161 10.8633 0.689398C10.8371 0.657962 10.8109 0.627183 10.7834 0.597053C10.3976 0.184452 9.90315 -0.0166104 9.31043 0.00107257C8.16692 0.0338189 7.02803 0.85968 6.10458 2.32671C5.45489 3.35887 4.96041 4.65565 4.82026 5.65963C3.50713 6.06633 2.58892 6.35056 2.56862 6.35713C1.90583 6.56538 1.88488 6.58568 1.79843 7.21051C1.73424 7.68268 0 21.093 0 21.093L14.5335 23.6066L20.8325 22.0406C20.8325 22.0406 18.2626 4.66481 18.2462 4.5456ZM12.7796 3.19514C12.4449 3.29862 12.0644 3.41651 11.6518 3.54422C11.6433 2.96527 11.5745 2.15971 11.3047 1.46352C12.1724 1.62791 12.5994 2.60964 12.7796 3.19514ZM10.8914 3.77999C10.1297 4.01575 9.29862 4.27314 8.46492 4.5312C8.69937 3.63329 9.14408 2.73932 9.69029 2.15316C9.89331 1.93507 10.1775 1.69209 10.5142 1.55324C10.8305 2.21341 10.8993 3.14799 10.8914 3.77999ZM9.33332 0.762094C9.60185 0.756201 9.8278 0.815146 10.021 0.942201C9.71189 1.10266 9.41323 1.33319 9.13294 1.6338C8.40661 2.41316 7.84993 3.62281 7.62791 4.78989C6.93565 5.00404 6.25845 5.2143 5.63496 5.40685C6.0286 3.56976 7.5683 0.813179 9.33332 0.762094Z"
        fill="#95BF47"
      />
      <path
        d="M18.0399 4.35372C17.9541 4.34652 16.2736 4.32098 16.2736 4.32098C16.2736 4.32098 14.8681 2.95611 14.7293 2.81726C14.6775 2.76552 14.6075 2.73867 14.5341 2.72754L14.5348 23.6059L20.8332 22.0407C20.8332 22.0407 18.2633 4.66548 18.2469 4.54627C18.2305 4.42705 18.1257 4.36092 18.0399 4.35372Z"
        fill="#5E8E3E"
      />
      <path
        d="M11.0427 7.59235L10.3111 10.3293C10.3111 10.3293 9.49509 9.95792 8.52777 10.0188C7.10918 10.1086 7.09411 11.0032 7.10855 11.2278C7.18582 12.4519 10.4061 12.7191 10.5869 15.5864C10.729 17.8419 9.39028 19.3849 7.46154 19.5067C5.14637 19.6528 3.87189 18.2873 3.87189 18.2873L4.36244 16.2007C4.36244 16.2007 5.64541 17.1687 6.67234 17.1038C7.343 17.0613 7.58269 16.5157 7.55845 16.1299C7.45761 14.5332 4.83527 14.6275 4.6696 12.0039C4.53008 9.79618 5.98011 7.55895 9.17939 7.35723C10.412 7.27799 11.0427 7.59235 11.0427 7.59235Z"
        fill="white"
      />
    </g>
    <defs>
      <clipPath id="clip0_5_355">
        <rect width="20.8525" height="24" fill="white" />
      </clipPath>
    </defs>
  </svg>